solid Default
  facet normal 0.000000e+00 0.000000e+00 1.000000e+00
    outer loop
      vertex 4.233759e+01 2.684452e+01 3.500000e+01
      vertex -2.066241e+01 3.034452e+01 3.500000e+01
      vertex -2.066241e+01 2.684452e+01 3.500000e+01
    endloop
  endfacet
  facet normal 0.000000e+00 0.000000e+00 1.000000e+00
    outer loop
      vertex -2.066241e+01 3.034452e+01 3.500000e+01
      vertex 4.233759e+01 2.684452e+01 3.500000e+01
      vertex 4.233759e+01 3.034452e+01 3.500000e+01
    endloop
  endfacet
  facet normal -0.000000e+00 -5.812382e-01 -8.137335e-01
    outer loop
      vertex 4.233759e+01 3.034452e+01 3.500000e+01
      vertex -2.066241e+01 5.844517e+00 5.250000e+01
      vertex -2.066241e+01 3.034452e+01 3.500000e+01
    endloop
  endfacet
  facet normal 0.000000e+00 -5.812382e-01 -8.137335e-01
    outer loop
      vertex -2.066241e+01 5.844517e+00 5.250000e+01
      vertex 4.233759e+01 3.034452e+01 3.500000e+01
      vertex 3.837594e+00 5.844517e+00 5.250000e+01
    endloop
  endfacet
  facet normal 0.000000e+00 -5.812382e-01 -8.137335e-01
    outer loop
      vertex 3.837594e+00 5.844517e+00 5.250000e+01
      vertex 4.233759e+01 3.034452e+01 3.500000e+01
      vertex 1.783759e+01 5.844517e+00 5.250000e+01
    endloop
  endfacet
  facet normal 0.000000e+00 -5.812382e-01 -8.137335e-01
    outer loop
      vertex 1.783759e+01 5.844517e+00 5.250000e+01
      vertex 4.233759e+01 3.034452e+01 3.500000e+01
      vertex 4.233759e+01 5.844517e+00 5.250000e+01
    endloop
  endfacet
  facet normal 0.000000e+00 5.812382e-01 -8.137335e-01
    outer loop
      vertex 3.837594e+00 5.844517e+00 5.250000e+01
      vertex -2.066241e+01 -1.865548e+01 3.500000e+01
      vertex -2.066241e+01 5.844517e+00 5.250000e+01
    endloop
  endfacet
  facet normal 0.000000e+00 5.812382e-01 -8.137335e-01
    outer loop
      vertex -2.066241e+01 -1.865548e+01 3.500000e+01
      vertex 3.837594e+00 5.844517e+00 5.250000e+01
      vertex 4.233759e+01 -1.865548e+01 3.500000e+01
    endloop
  endfacet
  facet normal 0.000000e+00 5.812382e-01 -8.137335e-01
    outer loop
      vertex 4.233759e+01 -1.865548e+01 3.500000e+01
      vertex 3.837594e+00 5.844517e+00 5.250000e+01
      vertex 1.783759e+01 5.844517e+00 5.250000e+01
    endloop
  endfacet
  facet normal 0.000000e+00 5.812382e-01 -8.137335e-01
    outer loop
      vertex 4.233759e+01 -1.865548e+01 3.500000e+01
      vertex 1.783759e+01 5.844517e+00 5.250000e+01
      vertex 4.233759e+01 5.844517e+00 5.250000e+01
    endloop
  endfacet
  facet normal 0.000000e+00 0.000000e+00 1.000000e+00
    outer loop
      vertex 4.233759e+01 -1.865548e+01 3.500000e+01
      vertex -2.066241e+01 -1.515548e+01 3.500000e+01
      vertex -2.066241e+01 -1.865548e+01 3.500000e+01
    endloop
  endfacet
  facet normal 0.000000e+00 0.000000e+00 1.000000e+00
    outer loop
      vertex -2.066241e+01 -1.515548e+01 3.500000e+01
      vertex 4.233759e+01 -1.865548e+01 3.500000e+01
      vertex 4.233759e+01 -1.515548e+01 3.500000e+01
    endloop
  endfacet
  facet normal -0.000000e+00 -0.000000e+00 -1.000000e+00
    outer loop
      vertex 4.233759e+01 3.034452e+01 3.500000e+01
      vertex 4.233759e+01 2.684452e+01 3.500000e+01
      vertex -2.066241e+01 3.034452e+01 3.500000e+01
    endloop
  endfacet
  facet normal 0.000000e+00 0.000000e+00 -1.000000e+00
    outer loop
      vertex -2.066241e+01 2.684452e+01 3.500000e+01
      vertex -2.066241e+01 3.034452e+01 3.500000e+01
      vertex 4.233759e+01 2.684452e+01 3.500000e+01
    endloop
  endfacet
  facet normal -1.000000e+00 0.000000e+00 0.000000e+00
    outer loop
      vertex -2.066241e+01 5.844517e+00 5.250000e+01
      vertex -2.066241e+01 -1.515548e+01 3.500000e+01
      vertex -2.066241e+01 -1.865548e+01 3.500000e+01
    endloop
  endfacet
  facet normal -1.000000e+00 0.000000e+00 0.000000e+00
    outer loop
      vertex -2.066241e+01 -1.515548e+01 3.500000e+01
      vertex -2.066241e+01 5.844517e+00 5.250000e+01
      vertex -2.066241e+01 2.684452e+01 3.500000e+01
    endloop
  endfacet
  facet normal -1.000000e+00 0.000000e+00 0.000000e+00
    outer loop
      vertex -2.066241e+01 2.684452e+01 3.500000e+01
      vertex -2.066241e+01 5.844517e+00 5.250000e+01
      vertex -2.066241e+01 3.034452e+01 3.500000e+01
    endloop
  endfacet
  facet normal 0.000000e+00 1.000000e+00 0.000000e+00
    outer loop
      vertex -2.066241e+01 2.684452e+01 3.500000e+01
      vertex 4.233759e+01 2.684452e+01 0.000000e+00
      vertex -2.066241e+01 2.684452e+01 0.000000e+00
    endloop
  endfacet
  facet normal 0.000000e+00 1.000000e+00 0.000000e+00
    outer loop
      vertex 4.233759e+01 2.684452e+01 0.000000e+00
      vertex -2.066241e+01 2.684452e+01 3.500000e+01
      vertex 4.233759e+01 2.684452e+01 3.500000e+01
    endloop
  endfacet
  facet normal 1.000000e+00 0.000000e+00 0.000000e+00
    outer loop
      vertex 4.233759e+01 -1.515548e+01 3.500000e+01
      vertex 4.233759e+01 5.844517e+00 5.250000e+01
      vertex 4.233759e+01 -1.865548e+01 3.500000e+01
    endloop
  endfacet
  facet normal 1.000000e+00 0.000000e+00 0.000000e+00
    outer loop
      vertex 4.233759e+01 5.844517e+00 5.250000e+01
      vertex 4.233759e+01 -1.515548e+01 3.500000e+01
      vertex 4.233759e+01 2.684452e+01 3.500000e+01
    endloop
  endfacet
  facet normal 1.000000e+00 0.000000e+00 0.000000e+00
    outer loop
      vertex 4.233759e+01 5.844517e+00 5.250000e+01
      vertex 4.233759e+01 2.684452e+01 3.500000e+01
      vertex 4.233759e+01 3.034452e+01 3.500000e+01
    endloop
  endfacet
  facet normal 0.000000e+00 5.812382e-01 8.137335e-01
    outer loop
      vertex 4.233759e+01 5.844517e+00 5.250000e+01
      vertex 4.233759e+01 3.034452e+01 3.500000e+01
      vertex 1.783759e+01 5.844517e+00 5.250000e+01
    endloop
  endfacet
  facet normal 0.000000e+00 5.812382e-01 8.137335e-01
    outer loop
      vertex 1.783759e+01 5.844517e+00 5.250000e+01
      vertex 4.233759e+01 3.034452e+01 3.500000e+01
      vertex 3.837594e+00 5.844517e+00 5.250000e+01
    endloop
  endfacet
  facet normal 0.000000e+00 5.812382e-01 8.137335e-01
    outer loop
      vertex 3.837594e+00 5.844517e+00 5.250000e+01
      vertex 4.233759e+01 3.034452e+01 3.500000e+01
      vertex -2.066241e+01 5.844517e+00 5.250000e+01
    endloop
  endfacet
  facet normal 0.000000e+00 5.812382e-01 8.137335e-01
    outer loop
      vertex -2.066241e+01 3.034452e+01 3.500000e+01
      vertex -2.066241e+01 5.844517e+00 5.250000e+01
      vertex 4.233759e+01 3.034452e+01 3.500000e+01
    endloop
  endfacet
  facet normal 0.000000e+00 -5.812382e-01 8.137335e-01
    outer loop
      vertex 4.233759e+01 5.844517e+00 5.250000e+01
      vertex 1.783759e+01 5.844517e+00 5.250000e+01
      vertex 4.233759e+01 -1.865548e+01 3.500000e+01
    endloop
  endfacet
  facet normal 0.000000e+00 -5.812382e-01 8.137335e-01
    outer loop
      vertex 1.783759e+01 5.844517e+00 5.250000e+01
      vertex 3.837594e+00 5.844517e+00 5.250000e+01
      vertex 4.233759e+01 -1.865548e+01 3.500000e+01
    endloop
  endfacet
  facet normal 0.000000e+00 -5.812382e-01 8.137335e-01
    outer loop
      vertex 4.233759e+01 -1.865548e+01 3.500000e+01
      vertex 3.837594e+00 5.844517e+00 5.250000e+01
      vertex -2.066241e+01 -1.865548e+01 3.500000e+01
    endloop
  endfacet
  facet normal 0.000000e+00 -5.812382e-01 8.137335e-01
    outer loop
      vertex -2.066241e+01 5.844517e+00 5.250000e+01
      vertex -2.066241e+01 -1.865548e+01 3.500000e+01
      vertex 3.837594e+00 5.844517e+00 5.250000e+01
    endloop
  endfacet
  facet normal -1.000000e+00 0.000000e+00 0.000000e+00
    outer loop
      vertex -2.066241e+01 2.684452e+01 3.500000e+01
      vertex -2.066241e+01 -1.515548e+01 0.000000e+00
      vertex -2.066241e+01 -1.515548e+01 3.500000e+01
    endloop
  endfacet
  facet normal -1.000000e+00 0.000000e+00 0.000000e+00
    outer loop
      vertex -2.066241e+01 -1.515548e+01 0.000000e+00
      vertex -2.066241e+01 2.684452e+01 3.500000e+01
      vertex -2.066241e+01 2.684452e+01 0.000000e+00
    endloop
  endfacet
  facet normal -0.000000e+00 -0.000000e+00 -1.000000e+00
    outer loop
      vertex 4.233759e+01 -1.515548e+01 3.500000e+01
      vertex 4.233759e+01 -1.865548e+01 3.500000e+01
      vertex -2.066241e+01 -1.515548e+01 3.500000e+01
    endloop
  endfacet
  facet normal 0.000000e+00 0.000000e+00 -1.000000e+00
    outer loop
      vertex -2.066241e+01 -1.865548e+01 3.500000e+01
      vertex -2.066241e+01 -1.515548e+01 3.500000e+01
      vertex 4.233759e+01 -1.865548e+01 3.500000e+01
    endloop
  endfacet
  facet normal 1.000000e+00 0.000000e+00 0.000000e+00
    outer loop
      vertex 4.233759e+01 2.684452e+01 0.000000e+00
      vertex 4.233759e+01 -1.515548e+01 3.500000e+01
      vertex 4.233759e+01 -1.515548e+01 0.000000e+00
    endloop
  endfacet
  facet normal 1.000000e+00 0.000000e+00 0.000000e+00
    outer loop
      vertex 4.233759e+01 -1.515548e+01 3.500000e+01
      vertex 4.233759e+01 2.684452e+01 0.000000e+00
      vertex 4.233759e+01 2.684452e+01 3.500000e+01
    endloop
  endfacet
  facet normal 0.000000e+00 0.000000e+00 -1.000000e+00
    outer loop
      vertex 4.233759e+01 2.684452e+01 0.000000e+00
      vertex -2.066241e+01 -1.515548e+01 0.000000e+00
      vertex -2.066241e+01 2.684452e+01 0.000000e+00
    endloop
  endfacet
  facet normal 0.000000e+00 0.000000e+00 -1.000000e+00
    outer loop
      vertex -2.066241e+01 -1.515548e+01 0.000000e+00
      vertex 4.233759e+01 2.684452e+01 0.000000e+00
      vertex 4.233759e+01 -1.515548e+01 0.000000e+00
    endloop
  endfacet
  facet normal 0.000000e+00 -1.000000e+00 0.000000e+00
    outer loop
      vertex 4.233759e+01 -1.515548e+01 3.500000e+01
      vertex -2.066241e+01 -1.515548e+01 0.000000e+00
      vertex 4.233759e+01 -1.515548e+01 0.000000e+00
    endloop
  endfacet
  facet normal 0.000000e+00 -1.000000e+00 0.000000e+00
    outer loop
      vertex -2.066241e+01 -1.515548e+01 0.000000e+00
      vertex 4.233759e+01 -1.515548e+01 3.500000e+01
      vertex -2.066241e+01 -1.515548e+01 3.500000e+01
    endloop
  endfacet
  facet normal 0.000000e+00 0.000000e+00 1.000000e+00
    outer loop
      vertex 4.233759e+01 -1.515548e+01 3.500000e+01
      vertex -2.066241e+01 2.684452e+01 3.500000e+01
      vertex -2.066241e+01 -1.515548e+01 3.500000e+01
    endloop
  endfacet
  facet normal 0.000000e+00 0.000000e+00 1.000000e+00
    outer loop
      vertex -2.066241e+01 2.684452e+01 3.500000e+01
      vertex 4.233759e+01 -1.515548e+01 3.500000e+01
      vertex 4.233759e+01 2.684452e+01 3.500000e+01
    endloop
  endfacet
  facet normal 0.000000e+00 0.000000e+00 -1.000000e+00
    outer loop
      vertex 4.076111e+00 7.656250e+00 1.750000e+00
      vertex 4.076111e+00 4.032783e+00 1.750000e+00
      vertex 3.837594e+00 5.844517e+00 1.750000e+00
    endloop
  endfacet
  facet normal 0.000000e+00 0.000000e+00 -1.000000e+00
    outer loop
      vertex 4.076111e+00 4.032783e+00 1.750000e+00
      vertex 4.076111e+00 7.656250e+00 1.750000e+00
      vertex 4.775419e+00 9.344517e+00 1.750000e+00
    endloop
  endfacet
  facet normal 0.000000e+00 0.000000e+00 -1.000000e+00
    outer loop
      vertex 4.076111e+00 4.032783e+00 1.750000e+00
      vertex 4.775419e+00 9.344517e+00 1.750000e+00
      vertex 4.775419e+00 2.344517e+00 1.750000e+00
    endloop
  endfacet
  facet normal 0.000000e+00 0.000000e+00 -1.000000e+00
    outer loop
      vertex 4.775419e+00 2.344517e+00 1.750000e+00
      vertex 4.775419e+00 9.344517e+00 1.750000e+00
      vertex 5.887848e+00 1.079426e+01 1.750000e+00
    endloop
  endfacet
  facet normal 0.000000e+00 0.000000e+00 -1.000000e+00
    outer loop
      vertex 4.775419e+00 2.344517e+00 1.750000e+00
      vertex 5.887848e+00 1.079426e+01 1.750000e+00
      vertex 5.887848e+00 8.947706e-01 1.750000e+00
    endloop
  endfacet
  facet normal 0.000000e+00 0.000000e+00 -1.000000e+00
    outer loop
      vertex 5.887848e+00 8.947706e-01 1.750000e+00
      vertex 5.887848e+00 1.079426e+01 1.750000e+00
      vertex 7.337594e+00 1.190669e+01 1.750000e+00
    endloop
  endfacet
  facet normal 0.000000e+00 0.000000e+00 -1.000000e+00
    outer loop
      vertex 5.887848e+00 8.947706e-01 1.750000e+00
      vertex 7.337594e+00 1.190669e+01 1.750000e+00
      vertex 7.337594e+00 -2.176614e-01 1.750000e+00
    endloop
  endfacet
  facet normal 0.000000e+00 0.000000e+00 -1.000000e+00
    outer loop
      vertex 7.337594e+00 -2.176614e-01 1.750000e+00
      vertex 7.337594e+00 1.190669e+01 1.750000e+00
      vertex 9.025864e+00 1.260600e+01 1.750000e+00
    endloop
  endfacet
  facet normal 0.000000e+00 0.000000e+00 -1.000000e+00
    outer loop
      vertex 7.337594e+00 -2.176614e-01 1.750000e+00
      vertex 9.025864e+00 1.260600e+01 1.750000e+00
      vertex 9.025864e+00 -9.169664e-01 1.750000e+00
    endloop
  endfacet
  facet normal 0.000000e+00 0.000000e+00 -1.000000e+00
    outer loop
      vertex 9.025864e+00 -9.169664e-01 1.750000e+00
      vertex 9.025864e+00 1.260600e+01 1.750000e+00
      vertex 1.083759e+01 1.284452e+01 1.750000e+00
    endloop
  endfacet
  facet normal 0.000000e+00 0.000000e+00 -1.000000e+00
    outer loop
      vertex 9.025864e+00 -9.169664e-01 1.750000e+00
      vertex 1.083759e+01 1.284452e+01 1.750000e+00
      vertex 1.083759e+01 -1.155483e+00 1.750000e+00
    endloop
  endfacet
  facet normal 0.000000e+00 0.000000e+00 -1.000000e+00
    outer loop
      vertex 1.083759e+01 -1.155483e+00 1.750000e+00
      vertex 1.083759e+01 1.284452e+01 1.750000e+00
      vertex 1.264932e+01 1.260600e+01 1.750000e+00
    endloop
  endfacet
  facet normal 0.000000e+00 0.000000e+00 -1.000000e+00
    outer loop
      vertex 1.083759e+01 -1.155483e+00 1.750000e+00
      vertex 1.264932e+01 1.260600e+01 1.750000e+00
      vertex 1.264932e+01 -9.169664e-01 1.750000e+00
    endloop
  endfacet
  facet normal 0.000000e+00 0.000000e+00 -1.000000e+00
    outer loop
      vertex 1.264932e+01 -9.169664e-01 1.750000e+00
      vertex 1.264932e+01 1.260600e+01 1.750000e+00
      vertex 1.433759e+01 1.190669e+01 1.750000e+00
    endloop
  endfacet
  facet normal 0.000000e+00 0.000000e+00 -1.000000e+00
    outer loop
      vertex 1.264932e+01 -9.169664e-01 1.750000e+00
      vertex 1.433759e+01 1.190669e+01 1.750000e+00
      vertex 1.433759e+01 -2.176614e-01 1.750000e+00
    endloop
  endfacet
  facet normal 0.000000e+00 0.000000e+00 -1.000000e+00
    outer loop
      vertex 1.433759e+01 -2.176614e-01 1.750000e+00
      vertex 1.433759e+01 1.190669e+01 1.750000e+00
      vertex 1.578734e+01 1.079426e+01 1.750000e+00
    endloop
  endfacet
  facet normal 0.000000e+00 0.000000e+00 -1.000000e+00
    outer loop
      vertex 1.433759e+01 -2.176614e-01 1.750000e+00
      vertex 1.578734e+01 1.079426e+01 1.750000e+00
      vertex 1.578734e+01 8.947706e-01 1.750000e+00
    endloop
  endfacet
  facet normal 0.000000e+00 0.000000e+00 -1.000000e+00
    outer loop
      vertex 1.578734e+01 8.947706e-01 1.750000e+00
      vertex 1.578734e+01 1.079426e+01 1.750000e+00
      vertex 1.689977e+01 9.344517e+00 1.750000e+00
    endloop
  endfacet
  facet normal 0.000000e+00 0.000000e+00 -1.000000e+00
    outer loop
      vertex 1.578734e+01 8.947706e-01 1.750000e+00
      vertex 1.689977e+01 9.344517e+00 1.750000e+00
      vertex 1.689977e+01 2.344517e+00 1.750000e+00
    endloop
  endfacet
  facet normal 0.000000e+00 0.000000e+00 -1.000000e+00
    outer loop
      vertex 1.689977e+01 2.344517e+00 1.750000e+00
      vertex 1.689977e+01 9.344517e+00 1.750000e+00
      vertex 1.759908e+01 7.656250e+00 1.750000e+00
    endloop
  endfacet
  facet normal 0.000000e+00 0.000000e+00 -1.000000e+00
    outer loop
      vertex 1.689977e+01 2.344517e+00 1.750000e+00
      vertex 1.759908e+01 7.656250e+00 1.750000e+00
      vertex 1.759908e+01 4.032783e+00 1.750000e+00
    endloop
  endfacet
  facet normal 0.000000e+00 0.000000e+00 -1.000000e+00
    outer loop
      vertex 1.759908e+01 4.032783e+00 1.750000e+00
      vertex 1.759908e+01 7.656250e+00 1.750000e+00
      vertex 1.783759e+01 5.844517e+00 1.750000e+00
    endloop
  endfacet
  facet normal 9.914450e-01 -1.305249e-01 0.000000e+00
    outer loop
      vertex 1.783759e+01 5.844517e+00 1.750000e+00
      vertex 1.759908e+01 4.032783e+00 5.425000e+01
      vertex 1.759908e+01 4.032783e+00 1.750000e+00
    endloop
  endfacet
  facet normal 9.914450e-01 -1.305249e-01 0.000000e+00
    outer loop
      vertex 1.759908e+01 4.032783e+00 5.425000e+01
      vertex 1.783759e+01 5.844517e+00 1.750000e+00
      vertex 1.783759e+01 5.844517e+00 5.425000e+01
    endloop
  endfacet
  facet normal NaN NaN NaN
    outer loop
      vertex 1.783759e+01 5.844517e+00 5.425000e+01
      vertex 1.783759e+01 5.844517e+00 1.750000e+00
      vertex 1.783759e+01 5.844517e+00 5.250000e+01
    endloop
  endfacet
  facet normal 9.914450e-01 1.305249e-01 0.000000e+00
    outer loop
      vertex 1.759908e+01 7.656250e+00 1.750000e+00
      vertex 1.783759e+01 5.844517e+00 5.250000e+01
      vertex 1.783759e+01 5.844517e+00 1.750000e+00
    endloop
  endfacet
  facet normal 9.914450e-01 1.305249e-01 0.000000e+00
    outer loop
      vertex 1.783759e+01 5.844517e+00 5.250000e+01
      vertex 1.759908e+01 7.656250e+00 1.750000e+00
      vertex 1.783759e+01 5.844517e+00 5.425000e+01
    endloop
  endfacet
  facet normal 9.914450e-01 1.305249e-01 0.000000e+00
    outer loop
      vertex 1.783759e+01 5.844517e+00 5.425000e+01
      vertex 1.759908e+01 7.656250e+00 1.750000e+00
      vertex 1.759908e+01 7.656250e+00 5.425000e+01
    endloop
  endfacet
  facet normal 0.000000e+00 0.000000e+00 1.000000e+00
    outer loop
      vertex 4.076111e+00 4.032783e+00 5.425000e+01
      vertex 4.076111e+00 7.656250e+00 5.425000e+01
      vertex 3.837594e+00 5.844517e+00 5.425000e+01
    endloop
  endfacet
  facet normal 0.000000e+00 0.000000e+00 1.000000e+00
    outer loop
      vertex 4.076111e+00 7.656250e+00 5.425000e+01
      vertex 4.076111e+00 4.032783e+00 5.425000e+01
      vertex 4.775419e+00 9.344517e+00 5.425000e+01
    endloop
  endfacet
  facet normal 0.000000e+00 0.000000e+00 1.000000e+00
    outer loop
      vertex 4.775419e+00 9.344517e+00 5.425000e+01
      vertex 4.076111e+00 4.032783e+00 5.425000e+01
      vertex 4.775419e+00 2.344517e+00 5.425000e+01
    endloop
  endfacet
  facet normal 0.000000e+00 0.000000e+00 1.000000e+00
    outer loop
      vertex 4.775419e+00 9.344517e+00 5.425000e+01
      vertex 4.775419e+00 2.344517e+00 5.425000e+01
      vertex 5.887848e+00 1.079426e+01 5.425000e+01
    endloop
  endfacet
  facet normal 0.000000e+00 0.000000e+00 1.000000e+00
    outer loop
      vertex 5.887848e+00 1.079426e+01 5.425000e+01
      vertex 4.775419e+00 2.344517e+00 5.425000e+01
      vertex 5.887848e+00 8.947706e-01 5.425000e+01
    endloop
  endfacet
  facet normal 0.000000e+00 0.000000e+00 1.000000e+00
    outer loop
      vertex 5.887848e+00 1.079426e+01 5.425000e+01
      vertex 5.887848e+00 8.947706e-01 5.425000e+01
      vertex 7.337594e+00 1.190669e+01 5.425000e+01
    endloop
  endfacet
  facet normal 0.000000e+00 0.000000e+00 1.000000e+00
    outer loop
      vertex 7.337594e+00 1.190669e+01 5.425000e+01
      vertex 5.887848e+00 8.947706e-01 5.425000e+01
      vertex 7.337594e+00 -2.176614e-01 5.425000e+01
    endloop
  endfacet
  facet normal 0.000000e+00 0.000000e+00 1.000000e+00
    outer loop
      vertex 7.337594e+00 1.190669e+01 5.425000e+01
      vertex 7.337594e+00 -2.176614e-01 5.425000e+01
      vertex 9.025864e+00 1.260600e+01 5.425000e+01
    endloop
  endfacet
  facet normal 0.000000e+00 0.000000e+00 1.000000e+00
    outer loop
      vertex 9.025864e+00 1.260600e+01 5.425000e+01
      vertex 7.337594e+00 -2.176614e-01 5.425000e+01
      vertex 9.025864e+00 -9.169664e-01 5.425000e+01
    endloop
  endfacet
  facet normal 0.000000e+00 0.000000e+00 1.000000e+00
    outer loop
      vertex 9.025864e+00 1.260600e+01 5.425000e+01
      vertex 9.025864e+00 -9.169664e-01 5.425000e+01
      vertex 1.083759e+01 1.284452e+01 5.425000e+01
    endloop
  endfacet
  facet normal 0.000000e+00 0.000000e+00 1.000000e+00
    outer loop
      vertex 1.083759e+01 1.284452e+01 5.425000e+01
      vertex 9.025864e+00 -9.169664e-01 5.425000e+01
      vertex 1.083759e+01 -1.155483e+00 5.425000e+01
    endloop
  endfacet
  facet normal 0.000000e+00 0.000000e+00 1.000000e+00
    outer loop
      vertex 1.083759e+01 1.284452e+01 5.425000e+01
      vertex 1.083759e+01 -1.155483e+00 5.425000e+01
      vertex 1.264932e+01 -9.169664e-01 5.425000e+01
    endloop
  endfacet
  facet normal 0.000000e+00 0.000000e+00 1.000000e+00
    outer loop
      vertex 1.083759e+01 1.284452e+01 5.425000e+01
      vertex 1.264932e+01 -9.169664e-01 5.425000e+01
      vertex 1.264932e+01 1.260600e+01 5.425000e+01
    endloop
  endfacet
  facet normal 0.000000e+00 0.000000e+00 1.000000e+00
    outer loop
      vertex 1.264932e+01 1.260600e+01 5.425000e+01
      vertex 1.264932e+01 -9.169664e-01 5.425000e+01
      vertex 1.433759e+01 1.190669e+01 5.425000e+01
    endloop
  endfacet
  facet normal 0.000000e+00 0.000000e+00 1.000000e+00
    outer loop
      vertex 1.433759e+01 1.190669e+01 5.425000e+01
      vertex 1.264932e+01 -9.169664e-01 5.425000e+01
      vertex 1.433759e+01 -2.176614e-01 5.425000e+01
    endloop
  endfacet
  facet normal 0.000000e+00 0.000000e+00 1.000000e+00
    outer loop
      vertex 1.433759e+01 1.190669e+01 5.425000e+01
      vertex 1.433759e+01 -2.176614e-01 5.425000e+01
      vertex 1.578734e+01 1.079426e+01 5.425000e+01
    endloop
  endfacet
  facet normal 0.000000e+00 0.000000e+00 1.000000e+00
    outer loop
      vertex 1.578734e+01 1.079426e+01 5.425000e+01
      vertex 1.433759e+01 -2.176614e-01 5.425000e+01
      vertex 1.578734e+01 8.947706e-01 5.425000e+01
    endloop
  endfacet
  facet normal 0.000000e+00 0.000000e+00 1.000000e+00
    outer loop
      vertex 1.578734e+01 1.079426e+01 5.425000e+01
      vertex 1.578734e+01 8.947706e-01 5.425000e+01
      vertex 1.689977e+01 9.344517e+00 5.425000e+01
    endloop
  endfacet
  facet normal 0.000000e+00 0.000000e+00 1.000000e+00
    outer loop
      vertex 1.689977e+01 9.344517e+00 5.425000e+01
      vertex 1.578734e+01 8.947706e-01 5.425000e+01
      vertex 1.689977e+01 2.344517e+00 5.425000e+01
    endloop
  endfacet
  facet normal 0.000000e+00 0.000000e+00 1.000000e+00
    outer loop
      vertex 1.689977e+01 9.344517e+00 5.425000e+01
      vertex 1.689977e+01 2.344517e+00 5.425000e+01
      vertex 1.759908e+01 4.032783e+00 5.425000e+01
    endloop
  endfacet
  facet normal 0.000000e+00 0.000000e+00 1.000000e+00
    outer loop
      vertex 1.689977e+01 9.344517e+00 5.425000e+01
      vertex 1.759908e+01 4.032783e+00 5.425000e+01
      vertex 1.759908e+01 7.656250e+00 5.425000e+01
    endloop
  endfacet
  facet normal 0.000000e+00 0.000000e+00 1.000000e+00
    outer loop
      vertex 1.759908e+01 7.656250e+00 5.425000e+01
      vertex 1.759908e+01 4.032783e+00 5.425000e+01
      vertex 1.783759e+01 5.844517e+00 5.425000e+01
    endloop
  endfacet
  facet normal 9.238784e-01 -3.826860e-01 0.000000e+00
    outer loop
      vertex 1.759908e+01 4.032783e+00 1.750000e+00
      vertex 1.689977e+01 2.344517e+00 5.425000e+01
      vertex 1.689977e+01 2.344517e+00 1.750000e+00
    endloop
  endfacet
  facet normal 9.238784e-01 -3.826860e-01 0.000000e+00
    outer loop
      vertex 1.689977e+01 2.344517e+00 5.425000e+01
      vertex 1.759908e+01 4.032783e+00 1.750000e+00
      vertex 1.759908e+01 4.032783e+00 5.425000e+01
    endloop
  endfacet
  facet normal 9.238784e-01 3.826860e-01 0.000000e+00
    outer loop
      vertex 1.689977e+01 9.344517e+00 1.750000e+00
      vertex 1.759908e+01 7.656250e+00 5.425000e+01
      vertex 1.759908e+01 7.656250e+00 1.750000e+00
    endloop
  endfacet
  facet normal 9.238784e-01 3.826860e-01 0.000000e+00
    outer loop
      vertex 1.759908e+01 7.656250e+00 5.425000e+01
      vertex 1.689977e+01 9.344517e+00 1.750000e+00
      vertex 1.689977e+01 9.344517e+00 5.425000e+01
    endloop
  endfacet
  facet normal 7.933535e-01 6.087612e-01 0.000000e+00
    outer loop
      vertex 1.578734e+01 1.079426e+01 1.750000e+00
      vertex 1.689977e+01 9.344517e+00 5.425000e+01
      vertex 1.689977e+01 9.344517e+00 1.750000e+00
    endloop
  endfacet
  facet normal 7.933535e-01 6.087612e-01 0.000000e+00
    outer loop
      vertex 1.689977e+01 9.344517e+00 5.425000e+01
      vertex 1.578734e+01 1.079426e+01 1.750000e+00
      vertex 1.578734e+01 1.079426e+01 5.425000e+01
    endloop
  endfacet
  facet normal 6.087624e-01 7.933527e-01 0.000000e+00
    outer loop
      vertex 1.433759e+01 1.190669e+01 5.425000e+01
      vertex 1.578734e+01 1.079426e+01 1.750000e+00
      vertex 1.433759e+01 1.190669e+01 1.750000e+00
    endloop
  endfacet
  facet normal 6.087624e-01 7.933527e-01 0.000000e+00
    outer loop
      vertex 1.578734e+01 1.079426e+01 1.750000e+00
      vertex 1.433759e+01 1.190669e+01 5.425000e+01
      vertex 1.578734e+01 1.079426e+01 5.425000e+01
    endloop
  endfacet
  facet normal 3.826839e-01 9.238794e-01 0.000000e+00
    outer loop
      vertex 1.264932e+01 1.260600e+01 5.425000e+01
      vertex 1.433759e+01 1.190669e+01 1.750000e+00
      vertex 1.264932e+01 1.260600e+01 1.750000e+00
    endloop
  endfacet
  facet normal 3.826839e-01 9.238794e-01 0.000000e+00
    outer loop
      vertex 1.433759e+01 1.190669e+01 1.750000e+00
      vertex 1.264932e+01 1.260600e+01 5.425000e+01
      vertex 1.433759e+01 1.190669e+01 5.425000e+01
    endloop
  endfacet
  facet normal 1.305251e-01 9.914451e-01 0.000000e+00
    outer loop
      vertex 1.083759e+01 1.284452e+01 5.425000e+01
      vertex 1.264932e+01 1.260600e+01 1.750000e+00
      vertex 1.083759e+01 1.284452e+01 1.750000e+00
    endloop
  endfacet
  facet normal 1.305251e-01 9.914451e-01 0.000000e+00
    outer loop
      vertex 1.264932e+01 1.260600e+01 1.750000e+00
      vertex 1.083759e+01 1.284452e+01 5.425000e+01
      vertex 1.264932e+01 1.260600e+01 5.425000e+01
    endloop
  endfacet
  facet normal -1.305251e-01 9.914451e-01 0.000000e+00
    outer loop
      vertex 9.025864e+00 1.260600e+01 5.425000e+01
      vertex 1.083759e+01 1.284452e+01 1.750000e+00
      vertex 9.025864e+00 1.260600e+01 1.750000e+00
    endloop
  endfacet
  facet normal -1.305251e-01 9.914451e-01 0.000000e+00
    outer loop
      vertex 1.083759e+01 1.284452e+01 1.750000e+00
      vertex 9.025864e+00 1.260600e+01 5.425000e+01
      vertex 1.083759e+01 1.284452e+01 5.425000e+01
    endloop
  endfacet
  facet normal -3.826839e-01 9.238794e-01 0.000000e+00
    outer loop
      vertex 7.337594e+00 1.190669e+01 5.425000e+01
      vertex 9.025864e+00 1.260600e+01 1.750000e+00
      vertex 7.337594e+00 1.190669e+01 1.750000e+00
    endloop
  endfacet
  facet normal -3.826839e-01 9.238794e-01 0.000000e+00
    outer loop
      vertex 9.025864e+00 1.260600e+01 1.750000e+00
      vertex 7.337594e+00 1.190669e+01 5.425000e+01
      vertex 9.025864e+00 1.260600e+01 5.425000e+01
    endloop
  endfacet
  facet normal -6.087624e-01 7.933527e-01 0.000000e+00
    outer loop
      vertex 5.887848e+00 1.079426e+01 5.425000e+01
      vertex 7.337594e+00 1.190669e+01 1.750000e+00
      vertex 5.887848e+00 1.079426e+01 1.750000e+00
    endloop
  endfacet
  facet normal -6.087624e-01 7.933527e-01 0.000000e+00
    outer loop
      vertex 7.337594e+00 1.190669e+01 1.750000e+00
      vertex 5.887848e+00 1.079426e+01 5.425000e+01
      vertex 7.337594e+00 1.190669e+01 5.425000e+01
    endloop
  endfacet
  facet normal -7.933535e-01 6.087612e-01 0.000000e+00
    outer loop
      vertex 5.887848e+00 1.079426e+01 5.425000e+01
      vertex 4.775419e+00 9.344517e+00 1.750000e+00
      vertex 4.775419e+00 9.344517e+00 5.425000e+01
    endloop
  endfacet
  facet normal -7.933535e-01 6.087612e-01 0.000000e+00
    outer loop
      vertex 4.775419e+00 9.344517e+00 1.750000e+00
      vertex 5.887848e+00 1.079426e+01 5.425000e+01
      vertex 5.887848e+00 1.079426e+01 1.750000e+00
    endloop
  endfacet
  facet normal -9.238784e-01 3.826860e-01 0.000000e+00
    outer loop
      vertex 4.775419e+00 9.344517e+00 5.425000e+01
      vertex 4.076111e+00 7.656250e+00 1.750000e+00
      vertex 4.076111e+00 7.656250e+00 5.425000e+01
    endloop
  endfacet
  facet normal -9.238784e-01 3.826860e-01 0.000000e+00
    outer loop
      vertex 4.076111e+00 7.656250e+00 1.750000e+00
      vertex 4.775419e+00 9.344517e+00 5.425000e+01
      vertex 4.775419e+00 9.344517e+00 1.750000e+00
    endloop
  endfacet
  facet normal -9.914450e-01 1.305249e-01 0.000000e+00
    outer loop
      vertex 4.076111e+00 7.656250e+00 5.425000e+01
      vertex 3.837594e+00 5.844517e+00 5.250000e+01
      vertex 3.837594e+00 5.844517e+00 5.425000e+01
    endloop
  endfacet
  facet normal -9.914450e-01 1.305249e-01 0.000000e+00
    outer loop
      vertex 3.837594e+00 5.844517e+00 5.250000e+01
      vertex 4.076111e+00 7.656250e+00 5.425000e+01
      vertex 3.837594e+00 5.844517e+00 1.750000e+00
    endloop
  endfacet
  facet normal -9.914450e-01 1.305249e-01 0.000000e+00
    outer loop
      vertex 3.837594e+00 5.844517e+00 1.750000e+00
      vertex 4.076111e+00 7.656250e+00 5.425000e+01
      vertex 4.076111e+00 7.656250e+00 1.750000e+00
    endloop
  endfacet
  facet normal -9.914450e-01 -1.305249e-01 0.000000e+00
    outer loop
      vertex 3.837594e+00 5.844517e+00 5.425000e+01
      vertex 4.076111e+00 4.032783e+00 1.750000e+00
      vertex 4.076111e+00 4.032783e+00 5.425000e+01
    endloop
  endfacet
  facet normal -9.914450e-01 -1.305249e-01 0.000000e+00
    outer loop
      vertex 4.076111e+00 4.032783e+00 1.750000e+00
      vertex 3.837594e+00 5.844517e+00 5.425000e+01
      vertex 3.837594e+00 5.844517e+00 1.750000e+00
    endloop
  endfacet
  facet normal NaN NaN NaN
    outer loop
      vertex 3.837594e+00 5.844517e+00 1.750000e+00
      vertex 3.837594e+00 5.844517e+00 5.425000e+01
      vertex 3.837594e+00 5.844517e+00 5.250000e+01
    endloop
  endfacet
  facet normal -9.238784e-01 -3.826860e-01 0.000000e+00
    outer loop
      vertex 4.076111e+00 4.032783e+00 5.425000e+01
      vertex 4.775419e+00 2.344517e+00 1.750000e+00
      vertex 4.775419e+00 2.344517e+00 5.425000e+01
    endloop
  endfacet
  facet normal -9.238784e-01 -3.826860e-01 0.000000e+00
    outer loop
      vertex 4.775419e+00 2.344517e+00 1.750000e+00
      vertex 4.076111e+00 4.032783e+00 5.425000e+01
      vertex 4.076111e+00 4.032783e+00 1.750000e+00
    endloop
  endfacet
  facet normal -7.933535e-01 -6.087612e-01 0.000000e+00
    outer loop
      vertex 4.775419e+00 2.344517e+00 5.425000e+01
      vertex 5.887848e+00 8.947706e-01 1.750000e+00
      vertex 5.887848e+00 8.947706e-01 5.425000e+01
    endloop
  endfacet
  facet normal -7.933535e-01 -6.087612e-01 0.000000e+00
    outer loop
      vertex 5.887848e+00 8.947706e-01 1.750000e+00
      vertex 4.775419e+00 2.344517e+00 5.425000e+01
      vertex 4.775419e+00 2.344517e+00 1.750000e+00
    endloop
  endfacet
  facet normal -6.087624e-01 -7.933527e-01 -0.000000e+00
    outer loop
      vertex 7.337594e+00 -2.176614e-01 5.425000e+01
      vertex 5.887848e+00 8.947706e-01 1.750000e+00
      vertex 7.337594e+00 -2.176614e-01 1.750000e+00
    endloop
  endfacet
  facet normal -6.087624e-01 -7.933527e-01 0.000000e+00
    outer loop
      vertex 5.887848e+00 8.947706e-01 1.750000e+00
      vertex 7.337594e+00 -2.176614e-01 5.425000e+01
      vertex 5.887848e+00 8.947706e-01 5.425000e+01
    endloop
  endfacet
  facet normal -3.826839e-01 -9.238794e-01 -0.000000e+00
    outer loop
      vertex 9.025864e+00 -9.169664e-01 5.425000e+01
      vertex 7.337594e+00 -2.176614e-01 1.750000e+00
      vertex 9.025864e+00 -9.169664e-01 1.750000e+00
    endloop
  endfacet
  facet normal -3.826839e-01 -9.238794e-01 0.000000e+00
    outer loop
      vertex 7.337594e+00 -2.176614e-01 1.750000e+00
      vertex 9.025864e+00 -9.169664e-01 5.425000e+01
      vertex 7.337594e+00 -2.176614e-01 5.425000e+01
    endloop
  endfacet
  facet normal -1.305251e-01 -9.914451e-01 -0.000000e+00
    outer loop
      vertex 1.083759e+01 -1.155483e+00 5.425000e+01
      vertex 9.025864e+00 -9.169664e-01 1.750000e+00
      vertex 1.083759e+01 -1.155483e+00 1.750000e+00
    endloop
  endfacet
  facet normal -1.305251e-01 -9.914451e-01 0.000000e+00
    outer loop
      vertex 9.025864e+00 -9.169664e-01 1.750000e+00
      vertex 1.083759e+01 -1.155483e+00 5.425000e+01
      vertex 9.025864e+00 -9.169664e-01 5.425000e+01
    endloop
  endfacet
  facet normal 1.305251e-01 -9.914451e-01 0.000000e+00
    outer loop
      vertex 1.264932e+01 -9.169664e-01 5.425000e+01
      vertex 1.083759e+01 -1.155483e+00 1.750000e+00
      vertex 1.264932e+01 -9.169664e-01 1.750000e+00
    endloop
  endfacet
  facet normal 1.305251e-01 -9.914451e-01 0.000000e+00
    outer loop
      vertex 1.083759e+01 -1.155483e+00 1.750000e+00
      vertex 1.264932e+01 -9.169664e-01 5.425000e+01
      vertex 1.083759e+01 -1.155483e+00 5.425000e+01
    endloop
  endfacet
  facet normal 3.826839e-01 -9.238794e-01 0.000000e+00
    outer loop
      vertex 1.433759e+01 -2.176614e-01 5.425000e+01
      vertex 1.264932e+01 -9.169664e-01 1.750000e+00
      vertex 1.433759e+01 -2.176614e-01 1.750000e+00
    endloop
  endfacet
  facet normal 3.826839e-01 -9.238794e-01 0.000000e+00
    outer loop
      vertex 1.264932e+01 -9.169664e-01 1.750000e+00
      vertex 1.433759e+01 -2.176614e-01 5.425000e+01
      vertex 1.264932e+01 -9.169664e-01 5.425000e+01
    endloop
  endfacet
  facet normal 6.087624e-01 -7.933527e-01 0.000000e+00
    outer loop
      vertex 1.578734e+01 8.947706e-01 5.425000e+01
      vertex 1.433759e+01 -2.176614e-01 1.750000e+00
      vertex 1.578734e+01 8.947706e-01 1.750000e+00
    endloop
  endfacet
  facet normal 6.087624e-01 -7.933527e-01 0.000000e+00
    outer loop
      vertex 1.433759e+01 -2.176614e-01 1.750000e+00
      vertex 1.578734e+01 8.947706e-01 5.425000e+01
      vertex 1.433759e+01 -2.176614e-01 5.425000e+01
    endloop
  endfacet
  facet normal 7.933535e-01 -6.087612e-01 0.000000e+00
    outer loop
      vertex 1.689977e+01 2.344517e+00 1.750000e+00
      vertex 1.578734e+01 8.947706e-01 5.425000e+01
      vertex 1.578734e+01 8.947706e-01 1.750000e+00
    endloop
  endfacet
  facet normal 7.933535e-01 -6.087612e-01 0.000000e+00
    outer loop
      vertex 1.578734e+01 8.947706e-01 5.425000e+01
      vertex 1.689977e+01 2.344517e+00 1.750000e+00
      vertex 1.689977e+01 2.344517e+00 5.425000e+01
    endloop
  endfacet
endsolid Default
